<svg xmlns="http://www.w3.org/2000/svg" version="1.1" xmlns:xlink="http://www.w3.org/1999/xlink" width="200" height="200"><svg xmlns="http://www.w3.org/2000/svg" version="1.1" xmlns:xlink="http://www.w3.org/1999/xlink" viewBox="0 0 200 200"><rect width="200" height="200" fill="url('#gradient')"></rect><defs><linearGradient id="SvgjsLinearGradient1001" gradientTransform="rotate(0 0.5 0.5)"><stop offset="0%" stop-color="#efe6e1"></stop><stop offset="100%" stop-color="#00ffaa"></stop></linearGradient></defs><g><g fill="#445272" transform="matrix(1.2935231970601748,0,0,1.2935231970601748,44.84745199159026,108.02101536086244)" stroke="#f0b10e" stroke-width="1.55"><path d="M1.46-13.19L4.76-13.19L4.76-10.57L6.49-10.57L6.49-8.28L4.76-8.28L4.76-3.45Q4.76-2.85 4.97-2.62Q5.19-2.38 5.82-2.38L5.82-2.38Q6.31-2.38 6.64-2.44L6.64-2.44L6.64-0.09Q5.75 0.20 4.79 0.20L4.79 0.20Q3.09 0.20 2.28-0.61Q1.46-1.41 1.46-3.04L1.46-3.04L1.46-8.28L0.12-8.28L0.12-10.57L1.46-10.57L1.46-13.19ZM11.01-15L11.01-9.43Q12.06-10.76 13.70-10.76L13.70-10.76Q15.45-10.76 16.34-9.73Q17.23-8.69 17.25-6.67L17.25-6.67L17.25 0L13.95 0L13.95-6.59Q13.95-7.43 13.60-7.83Q13.26-8.22 12.44-8.22L12.44-8.22Q11.43-8.22 11.01-7.58L11.01-7.58L11.01 0L7.71 0L7.71-15L11.01-15ZM24.19 0.20L24.19 0.20Q21.76 0.20 20.25-1.25Q18.75-2.71 18.75-5.03L18.75-5.03L18.75-5.30Q18.75-6.92 19.35-8.16Q19.95-9.40 21.10-10.08Q22.26-10.76 23.84-10.76L23.84-10.76Q26.06-10.76 27.35-9.38Q28.64-8.00 28.64-5.53L28.64-5.53L28.64-4.25L22.10-4.25Q22.28-3.36 22.87-2.85Q23.47-2.34 24.41-2.34L24.41-2.34Q25.98-2.34 26.86-3.44L26.86-3.44L28.36-1.66Q27.74-0.81 26.62-0.31Q25.49 0.20 24.19 0.20ZM23.82-8.22L23.82-8.22Q22.37-8.22 22.10-6.31L22.10-6.31L25.42-6.31L25.42-6.56Q25.44-7.35 25.02-7.79Q24.60-8.22 23.82-8.22ZM42.18-7.47L42.18-6.82Q42.18-4.84 41.52-3.37Q40.87-1.90 39.72-1.02L39.72-1.02L42.01 0.80L39.89 2.60L36.84 0.14Q36.41 0.20 35.98 0.20L35.98 0.20Q34.16 0.20 32.75-0.64Q31.35-1.48 30.56-3.05Q29.78-4.61 29.75-6.64L29.75-6.64L29.75-7.39Q29.75-9.49 30.51-11.08Q31.28-12.68 32.70-13.54Q34.12-14.41 35.96-14.41L35.96-14.41Q37.76-14.41 39.18-13.55Q40.60-12.70 41.38-11.11Q42.17-9.52 42.18-7.47L42.18-7.47ZM38.69-6.76L38.69-7.41Q38.69-9.53 37.98-10.63Q37.28-11.73 35.96-11.73L35.96-11.73Q34.60-11.73 33.92-10.64Q33.23-9.56 33.22-7.47L33.22-7.47L33.22-6.82Q33.22-4.72 33.92-3.60Q34.61-2.48 35.98-2.48L35.98-2.48Q37.29-2.48 37.98-3.58Q38.68-4.69 38.69-6.76L38.69-6.76ZM52.74-8.57L52.74-6.03L47.35-6.03L47.35-2.64L53.72-2.64L53.72 0L43.93 0L43.93-14.22L53.74-14.22L53.74-11.57L47.35-11.57L47.35-8.57L52.74-8.57ZM58.10-14.22L60.42-9.49L62.74-14.22L66.66-14.22L62.69-7.17L66.77 0L62.81 0L60.42-4.81L58.03 0L54.08 0L58.15-7.17L54.19-14.22L58.10-14.22ZM76.79 0L75.96-2.66L71.26-2.66L70.44 0L66.78 0L71.99-14.22L75.21-14.22L80.47 0L76.79 0ZM73.60-10.23L72.08-5.30L75.14-5.30L73.60-10.23ZM85.16-14.22L85.16 0L81.74 0L81.74-14.22L85.16-14.22Z"></path></g></g></svg><style>@media (prefers-color-scheme: light) { :root { filter: none; } }
@media (prefers-color-scheme: dark) { :root { filter: none; } }
</style></svg>